<?xml version="1.0" encoding="UTF-8"?>
<svg xmlns="http://www.w3.org/2000/svg" xmlns:xlink="http://www.w3.org/1999/xlink" width="32pt" height="32pt" viewBox="0 0 32 32" version="1.1">
<path style="fill:#010101; stroke:#010101;" d="M0 0L0 32L32 32L32 0L0 0z"/>
<path style="fill:#f5dfdb; stroke:#f5dfdb;" d="M14 1L14 9L13 9L13 6L12 6L11 10C15.2862 9.94991 18.0874 10.3043 22 12L22 7L21 7L21 9L20 9L20 5L19 5L19 9L18 9L18 4L17 4L17 9L16 9L16 1L14 1M20 15C18.6638 16.8255 18.3096 17.7528 18 20C20.1748 18.4513 20.8934 17.5848 20 15M9 16L9 20L17 20L17 16L9 16z"/>
<path style="fill:#010101; stroke:#010101;" d="M10 17L10 19L12 19L12 17L10 17M13.3333 17.6667C13.2778 17.7222 13.2222 18.7778 13.6667 18.3333C13.7222 18.2778 13.7778 17.2222 13.3333 17.6667M15.3333 17.6667C15.2778 17.7222 15.2222 18.7778 15.6667 18.3333C15.7222 18.2778 15.7778 17.2222 15.3333 17.6667z"/>
</svg>
